Coordinates
version=1
nRows=14
nColumns=24
inDegrees=yes

Units are S.I. units (second, meters, Newtons, ...)
Angles are in degrees.

endheader
time	pelvis_tilt	pelvis_list	pelvis_rotation	pelvis_tx	pelvis_ty	pelvis_tz	hip_flexion_r	hip_adduction_r	hip_rotation_r	knee_angle_r	ankle_angle_r	subtalar_angle_r	mtp_angle_r	hip_flexion_l	hip_adduction_l	hip_rotation_l	knee_angle_l	ankle_angle_l	subtalar_angle_l	mtp_angle_l	lumbar_extension	lumbar_bending	lumbar_rotation
      5.90000000	    -12.64326238	      6.19178207	      7.04577827	     -0.31250924	     -0.03729114	      2.02271258	     13.61544786	    -12.41783842	    -14.92938627	    -56.73219192	    -20.32804862	     -2.28424197	     -6.55081781	     31.19203564	     12.70516558	     -3.19764044	    -22.55927481	     -3.64586393	     -7.63889175	     14.24655915	     10.13618448	     -9.48756403	     -2.42644659
      5.91000000	    -12.66236484	      6.25400544	      7.03470754	     -0.30050400	     -0.03555978	      2.02202314	     15.52733778	    -12.23712919	    -13.64893967	    -58.72370465	    -18.62753806	     -3.70561242	     -7.54282021	     30.20086997	     12.67476144	     -3.58078954	    -22.20655126	     -3.15411432	     -7.26419053	     16.14942979	     10.03146268	     -9.58852093	     -2.69172343
      5.92000000	    -12.57453037	      6.20140314	      6.95979856	     -0.28858497	     -0.03349354	      2.02145634	     17.30581888	    -11.82418724	    -12.35971933	    -60.32177953	    -16.91230628	     -4.73236653	     -7.49638220	     29.08191931	     12.48608571	     -3.90175078	    -21.85869523	     -2.35160745	     -6.56493724	     16.72332239	      9.82442865	     -9.53922072	     -2.88084710
      5.93000000	    -12.63042129	      6.05704948	      6.94295150	     -0.27679602	     -0.03149407	      2.02085256	     19.23766872	    -11.30185017	    -11.13506815	    -61.67843323	    -14.84537081	     -5.15949162	     -9.39316198	     28.05597318	     12.25664308	     -4.05178710	    -21.32723992	     -1.99760624	     -6.14230247	     18.75851950	      9.76989347	     -9.42192548	     -3.21767763
      5.94000000	    -12.39906565	      5.96548036	      6.79325974	     -0.26497553	     -0.02905104	      2.02030823	     20.78979428	    -10.76984323	     -9.92666752	    -62.61741508	    -13.14712540	     -5.32241335	     -9.50938707	     26.59699387	     12.05597419	     -4.05566402	    -20.63476559	     -1.38227400	     -5.73978164	     18.75191799	      9.42560761	     -9.27753232	     -3.40508769
      5.95000000	    -12.30411484	      5.78298958	      6.74634180	     -0.25333061	     -0.02690412	      2.01956049	     22.45379408	    -10.20151862	     -8.87753541	    -63.36157990	    -10.94032453	     -4.90839422	    -12.37813895	     25.28965014	     11.87380065	     -3.72501860	    -19.98397595	     -0.53596793	     -5.38399456	     17.16882547	      9.20850026	     -9.05837554	     -3.65145314
      5.96000000	    -12.17481028	      5.59899053	      6.72671638	     -0.24165216	     -0.02479536	      2.01869517	     23.96608593	     -9.69205668	     -8.05072640	    -63.70569739	     -9.32179639	     -4.60368837	    -12.19958747	     23.86720755	     11.71526231	     -3.32445285	    -19.13102583	     -0.14522732	     -5.39523425	     17.06225524	      8.96570052	     -8.82767900	     -3.94353627
      5.97000000	    -11.92555901	      5.35930339	      6.73342684	     -0.23006939	     -0.02268896	      2.01779301	     25.25781128	     -9.12668278	     -7.35128216	    -63.74966919	     -7.35788399	     -4.07358394	    -14.31988144	     22.34888837	     11.51260440	     -2.81336762	    -18.38332606	      0.63140018	     -5.28229948	     14.86934356	      8.58070431	     -8.53003783	     -4.30501231
      5.98000000	    -11.78666689	      5.08576560	      6.78109497	     -0.21855399	     -0.02090237	      2.01680488	     26.58323630	     -8.59616317	     -6.82117410	    -63.49599081	     -5.49477161	     -3.59980997	    -16.05028450	     20.97326603	     11.27809395	     -2.38358137	    -17.59731057	      1.07435343	     -5.30313839	     14.21831783	      8.31121638	     -8.20582950	     -4.67183606
      5.99000000	    -11.78868526	      4.75076080	      6.84059896	     -0.20715404	     -0.01944333	      2.01581407	     27.98731488	     -8.05637401	     -6.45168397	    -62.90520539	     -4.20113420	     -3.48335857	    -15.86092038	     19.81834462	     10.97063720	     -2.08514005	    -16.87246757	      1.42221650	     -5.30171666	     14.23363091	      8.19146511	     -7.83683777	     -5.02011867
      6.00000000	    -11.56548540	      4.44921694	      7.03049616	     -0.19577717	     -0.01788757	      2.01469546	     29.00251898	     -7.63867914	     -6.26992949	    -62.07029951	     -2.24991815	     -3.01112392	    -19.55520392	     18.42081353	     10.70853775	     -1.68427168	    -16.17901404	      1.86792080	     -5.17714095	     13.65225808	      7.79796064	     -7.51259582	     -5.51758215
      6.01000000	    -11.46544425	      4.09146793	      7.31117391	     -0.18453497	     -0.01663759	      2.01345444	     30.05924775	     -7.29799215	     -6.37956233	    -60.90188642	     -1.21973686	     -3.09580748	    -19.58419256	     17.20629695	     10.40816437	     -1.28030379	    -15.52405053	      2.20470867	     -5.05099527	     13.75983481	      7.52441025	     -7.15036802	     -6.06605032
      6.02000000	    -11.31157125	      3.72148322	      7.60581939	     -0.17330375	     -0.01545981	      2.01215417	     30.97208893	     -7.01201580	     -6.64031607	    -59.47155975	     -0.41060014	     -3.30540380	    -19.91295445	     15.93248487	     10.08007828	     -0.90301828	    -14.84526076	      2.53271580	     -4.92510043	     13.88950601	      7.20002622	     -6.76080480	     -6.62255251
      6.03000000	    -11.16802633	      3.41143654	      7.87090185	     -0.16211595	     -0.01455835	      2.01089478	     31.85897179	     -6.79517578	     -6.81206412	    -57.97124158	      1.34234218	     -3.01002721	    -25.82508589	     14.67568128	      9.79238928	     -0.59840469	    -14.14379557	      2.70051971	     -4.90774580	     14.69785972	      6.88337567	     -6.42404224	     -7.07579102
